<?xml version="1.0" encoding="utf-8"?>
<!-- Generated by IcoMoon.io -->
<!DOCTYPE svg PUBLIC "-//W3C//DTD SVG 1.1//EN" "http://www.w3.org/Graphics/SVG/1.1/DTD/svg11.dtd">
<svg version="1.1" xmlns="http://www.w3.org/2000/svg" xmlns:xlink="http://www.w3.org/1999/xlink" width="819" height="1024" viewBox="0 0 819 1024">
<g id="icomoon-ignore">
</g>
<path d="M631.487 273.578l-311.033 199.782c-8.736 5.828-12.814 14.564-12.814 23.879s4.078 18.053 12.814 23.879l311.612 200.361c18.642 12.235 43.68-1.166 43.68-23.879v-400.142c-0.579-22.718-25.050-36.114-44.27-23.879z"></path>
<path d="M249.975 268.331h-40.772c-31.457 0-57.083 25.629-57.083 57.083v343.648c0 31.457 25.629 57.083 57.083 57.083h40.772c31.457 0 57.083-25.629 57.083-57.083v-343.648c0-31.457-25.629-57.083-57.083-57.083z"></path>
</svg>
