<?xml version="1.0" encoding="utf-8"?>
<!-- Generated by IcoMoon.io -->
<!DOCTYPE svg PUBLIC "-//W3C//DTD SVG 1.1//EN" "http://www.w3.org/Graphics/SVG/1.1/DTD/svg11.dtd">
<svg version="1.1" xmlns="http://www.w3.org/2000/svg" xmlns:xlink="http://www.w3.org/1999/xlink" width="819" height="1024" viewBox="0 0 819 1024">
<g id="icomoon-ignore">
</g>
<path d="M640.327 412.161c-45.569 0-82.591 37.025-82.591 85.44s37.025 85.44 82.591 85.44c45.569 0 82.591-37.025 82.591-85.44s-37.025-85.44-82.591-85.44zM409.639 412.161c-45.569 0-82.591 37.025-82.591 85.44s37.025 85.44 82.591 85.44c45.569 0 82.591-37.025 82.591-85.44s-37.025-85.44-82.591-85.44zM178.951 412.161c-45.569 0-82.591 37.025-82.591 85.44s37.025 85.44 82.591 85.44c45.569 0 82.591-37.025 82.591-85.44s-37.025-85.44-82.591-85.44z"></path>
</svg>
