<?xml version="1.0" encoding="utf-8"?>
<!-- Generated by IcoMoon.io -->
<!DOCTYPE svg PUBLIC "-//W3C//DTD SVG 1.1//EN" "http://www.w3.org/Graphics/SVG/1.1/DTD/svg11.dtd">
<svg version="1.1" xmlns="http://www.w3.org/2000/svg" xmlns:xlink="http://www.w3.org/1999/xlink" width="819" height="1024" viewBox="0 0 819 1024">
<g id="icomoon-ignore">
</g>
<path d="M735.87 136.168h-652.35c-13.606 0-24.652 11.046-24.652 24.652v652.38c0 13.606 11.046 24.652 24.652 24.652h652.35c13.606 0 24.652-11.046 24.652-24.652v-652.38c0-13.606-11.046-24.652-24.652-24.652zM488.826 544.546h26.578v244.002h-211.419v-243.972h26.587c13.606 0 24.652-11.046 24.652-24.652v-334.43h108.928v334.4c0 13.606 11.046 24.652 24.652 24.652zM108.172 185.472h95.248v334.43c0 13.606 11.046 24.652 24.652 24.652h26.587v243.972h-146.487v-603.054zM711.218 788.526h-146.479v-244.002h26.578c13.606 0 24.652-11.046 24.652-24.652v-334.4h95.248v603.054z"></path>
</svg>
