<?xml version="1.0" encoding="utf-8"?>
<!-- Generated by IcoMoon.io -->
<!DOCTYPE svg PUBLIC "-//W3C//DTD SVG 1.1//EN" "http://www.w3.org/Graphics/SVG/1.1/DTD/svg11.dtd">
<svg version="1.1" xmlns="http://www.w3.org/2000/svg" xmlns:xlink="http://www.w3.org/1999/xlink" width="819" height="1024" viewBox="0 0 819 1024">
<g id="icomoon-ignore">
</g>
<path d="M186.54 304.268c0-25.055 20.319-45.372 45.387-45.372h95.385c25.055 0 45.387 20.319 45.387 45.372v360.448c0 25.060-20.319 45.38-45.387 45.38h-95.385c-25.055 0-45.387-20.319-45.387-45.38v-360.448z"></path>
<path d="M446.44 304.268c0-25.055 20.319-45.372 45.359-45.372h95.387c25.055 0 45.364 20.319 45.364 45.372v360.448c0 25.060-20.312 45.38-45.364 45.38h-95.387c-25.050 0-45.364-20.319-45.364-45.38v-360.448z"></path>
</svg>
