<?xml version="1.0" encoding="utf-8"?>
<!-- Generated by IcoMoon.io -->
<!DOCTYPE svg PUBLIC "-//W3C//DTD SVG 1.1//EN" "http://www.w3.org/Graphics/SVG/1.1/DTD/svg11.dtd">
<svg version="1.1" xmlns="http://www.w3.org/2000/svg" xmlns:xlink="http://www.w3.org/1999/xlink" width="819" height="1024" viewBox="0 0 819 1024">
<g id="icomoon-ignore">
</g>
<path d="M757.76 818.347h-696.32c-29.013 0-52.907-23.893-52.907-52.907v-532.48c0-29.013 23.893-52.907 52.907-52.907h696.32c29.013 0 52.907 23.893 52.907 52.907v532.48c0 29.013-23.893 52.907-52.907 52.907zM75.093 751.787h669.013v-505.173h-669.013v505.173z"></path>
<path d="M574.293 636.588c-69.973 0-128-56.32-128-126.293s56.32-126.293 128-126.293c69.973 0 128 56.32 128 126.293s-58.027 126.293-128 126.293zM574.293 450.561c-32.427 0-59.733 27.307-59.733 59.733s27.307 59.733 59.733 59.733 59.733-27.307 59.733-59.733-27.307-59.733-59.733-59.733z"></path>
<path d="M241.493 636.588c-69.973 0-128-56.32-128-126.293s56.32-126.293 128-126.293c69.973 0 128 56.32 128 126.293s-58.027 126.293-128 126.293zM241.493 450.561c-32.427 0-59.733 27.307-59.733 59.733s27.307 59.733 59.733 59.733c32.427 0 59.733-27.307 59.733-59.733s-27.307-59.733-59.733-59.733z"></path>
<path d="M572.607 450.113h-332.8c-18.773 0-34.133-14.88-34.133-33.067s15.36-33.067 34.133-33.067h332.8c18.773 0 34.133 14.88 34.133 33.067s-17.067 33.067-34.133 33.067z"></path>
</svg>
