<?xml version="1.0" encoding="utf-8"?>
<!-- Generated by IcoMoon.io -->
<!DOCTYPE svg PUBLIC "-//W3C//DTD SVG 1.1//EN" "http://www.w3.org/Graphics/SVG/1.1/DTD/svg11.dtd">
<svg version="1.1" xmlns="http://www.w3.org/2000/svg" xmlns:xlink="http://www.w3.org/1999/xlink" width="819" height="1024" viewBox="0 0 819 1024">
<g id="icomoon-ignore">
</g>
<path d="M195.945 202.371h452.727c35.966 0 64.683 28.663 64.683 64.104 0 35.449-28.717 63.734-64.683 63.734h-452.727c-35.587 0-64.683-28.285-64.683-63.734s29.082-64.104 64.683-64.104v0z"></path>
<path d="M197.089 415.455h452.727c35.587 0 64.683 28.286 64.683 63.726 0 35.449-29.088 64.129-64.683 64.129h-452.727c-35.968 0-64.675-28.67-64.675-64.129 0-35.449 28.705-63.726 64.675-63.726v0z"></path>
<path d="M196.324 628.158h452.727c35.966 0 64.683 28.663 64.683 64.1 0 35.068-28.717 63.754-64.683 63.754h-452.727c-35.968 0-64.675-28.682-64.675-63.754 0-35.439 28.705-64.1 64.675-64.1v0z"></path>
</svg>
