<?xml version="1.0" encoding="utf-8"?>
<!-- Generated by IcoMoon.io -->
<!DOCTYPE svg PUBLIC "-//W3C//DTD SVG 1.1//EN" "http://www.w3.org/Graphics/SVG/1.1/DTD/svg11.dtd">
<svg version="1.1" xmlns="http://www.w3.org/2000/svg" xmlns:xlink="http://www.w3.org/1999/xlink" width="1206" height="1024" viewBox="0 0 1206 1024">
<g id="icomoon-ignore">
</g>
<path d="M54.937 674.845c0 13.601 4.925 23.883 14.799 30.861 9.861 6.973 20.4 9.443 31.63 7.391 10.545-2.033 17.938-5.785 22.187-11.229 4.246-5.445 6.37-14.459 6.37-27.037v-147.916c0-10.545-3.66-19.475-10.963-26.771-7.315-7.315-16.244-10.963-26.771-10.963-10.203 0-18.954 3.66-26.276 10.963s-10.963 16.244-10.963 26.771v147.916zM172.25 738.092c0 9.861 3.479 17.261 10.461 22.187s15.903 7.391 26.771 7.391c11.229 0 20.311-2.463 27.292-7.391 6.973-4.924 10.461-12.331 10.461-22.187v-344.801c0-10.203-3.662-18.956-10.963-26.276-7.315-7.315-16.245-10.963-26.771-10.963-10.203 0-18.956 3.662-26.276 10.963-7.315 7.315-10.963 16.062-10.963 26.276v344.801zM289.060 754.417c0 9.861 3.569 17.261 10.708 22.187 7.139 4.924 16.321 7.391 27.541 7.391 10.887 0 19.813-2.463 26.771-7.391 6.973-4.925 10.462-12.331 10.462-22.187v-314.708c0-10.545-3.662-19.551-10.963-27.037-7.315-7.477-16.062-11.228-26.276-11.228-10.545 0-19.551 3.743-27.037 11.228s-11.229 16.493-11.229 27.037v314.708zM406.369 755.939c0 18.708 12.584 28.062 37.752 28.062s37.751-9.354 37.751-28.062v-510.062c0-28.557-8.676-44.708-26.011-48.461-11.229-2.717-22.277 0.513-33.155 9.692s-16.321 22.097-16.321 38.769v510.062zM525.728 770.737v-554.954c0-17.689 5.263-28.216 15.815-31.63 22.781-5.445 45.391-8.155 67.845-8.155 52.028 0 100.491 12.245 145.37 36.727 44.891 24.491 81.187 57.893 108.893 100.226 27.721 42.34 43.785 89.014 48.203 140.012 20.739-8.835 42.845-13.262 66.306-13.262 47.602 0 88.331 16.831 122.155 50.493 33.839 33.664 50.749 74.125 50.749 121.392 0 47.602-16.923 88.245-50.749 121.907s-74.385 50.493-121.658 50.493l-443.755-0.513c-3.059-1.016-5.356-2.893-6.893-5.605s-2.299-5.11-2.299-7.142z"></path>
</svg>
