<?xml version="1.0" encoding="utf-8"?>
<!-- Generated by IcoMoon.io -->
<!DOCTYPE svg PUBLIC "-//W3C//DTD SVG 1.1//EN" "http://www.w3.org/Graphics/SVG/1.1/DTD/svg11.dtd">
<svg version="1.1" xmlns="http://www.w3.org/2000/svg" xmlns:xlink="http://www.w3.org/1999/xlink" width="819" height="1024" viewBox="0 0 819 1024">
<g id="icomoon-ignore">
</g>
<path d="M569.968 462.234c-13.233 0-25.577 3.753-36.151 10.174-11.063-23.505-34.96-39.798-62.617-39.798-13.233 0-25.577 3.753-36.151 10.174-11.063-23.505-34.96-39.798-62.617-39.798-10.565 0-20.641 2.374-29.632 6.715v-110.516c24.1-19.948 39.504-50.069 39.504-83.846 0-60.047-48.593-108.64-108.64-108.64s-108.64 48.593-108.64 108.64c0 33.777 15.404 63.898 39.504 83.846v340.826c0 119.801 97.479 217.28 217.28 217.28s217.28-97.479 217.28-217.28v-108.64c0-38.125-31.011-69.136-69.136-69.136zM599.598 640.004c0 97.969-79.799 177.768-177.768 177.768-98.075 0-177.768-79.799-177.768-177.768v-404.928c0-16.293 13.331-29.632 29.632-29.632s29.632 13.331 29.632 29.632v237.032c0 10.867 8.885 19.752 19.752 19.752s19.752-8.885 19.752-19.752c0-16.293 13.331-29.632 29.632-29.632s29.632 13.331 29.632 29.632v29.632c0 10.867 8.885 19.752 19.752 19.752s19.752-8.885 19.752-19.752c0-16.293 13.331-29.632 29.632-29.632s29.632 13.331 29.632 29.632v29.632c0 10.867 8.885 19.752 19.752 19.752s19.752-8.885 19.752-19.752c0-16.293 13.331-29.632 29.632-29.632s29.632 13.331 29.632 29.632v108.64z"></path>
</svg>
